<svg width="260" height="260" viewBox="0 0 260 260" fill="none" xmlns="http://www.w3.org/2000/svg">
<path fill-rule="evenodd" clip-rule="evenodd" d="M168.253 24.3507C143.103 18.4515 116.931 18.4515 91.7812 24.3507C58.5693 32.1411 32.6371 58.0732 24.8467 91.2852C18.9474 116.435 18.9474 142.607 24.8467 167.757C32.6371 200.969 58.5693 226.901 91.7812 234.691C116.931 240.59 143.103 240.59 168.253 234.691C201.465 226.901 227.397 200.969 235.187 167.757C241.086 142.607 241.086 116.435 235.187 91.2852C227.397 58.0734 201.465 32.1411 168.253 24.3507ZM87.2307 4.95099C115.372 -1.65033 144.662 -1.65033 172.803 4.95099C213.383 14.4697 245.069 46.1548 254.587 86.7347C261.188 114.877 261.188 144.166 254.587 172.307C245.069 212.887 213.383 244.573 172.803 254.091C144.662 260.692 115.372 260.692 87.2307 254.091C46.6509 244.573 14.9656 212.887 5.44696 172.308C-1.15436 144.166 -1.15436 114.877 5.44696 86.7346C14.9656 46.1548 46.6507 14.4697 87.2307 4.95099Z" fill="black"/>
<path fill-rule="evenodd" clip-rule="evenodd" d="M130.017 86.3472C135.519 86.3472 139.98 90.8079 139.98 96.3103V119.558H163.228C168.73 119.558 173.191 124.019 173.191 129.521C173.191 135.023 168.73 139.484 163.228 139.484H139.98V162.731C139.98 168.234 135.519 172.695 130.017 172.695C124.515 172.695 120.054 168.234 120.054 162.731V139.484H96.8065C91.3041 139.484 86.8434 135.023 86.8434 129.521C86.8434 124.019 91.3041 119.558 96.8065 119.558H120.054V96.3103C120.054 90.8079 124.515 86.3472 130.017 86.3472Z" fill="black"/>
</svg>
