<svg width="62" height="64" viewBox="0 0 62 64" fill="none" xmlns="http://www.w3.org/2000/svg">
<path d="M36.0586 32L61.6933 1.44336C62.123 0.935547 61.7617 0.164062 61.0976 0.164062H53.3047C52.8457 0.164062 52.4062 0.36914 52.1035 0.720703L30.9609 25.9258L9.81835 0.720703C9.52538 0.36914 9.08593 0.164062 8.61718 0.164062H0.824208C0.160146 0.164062 -0.201183 0.935547 0.228504 1.44336L25.8633 32L0.228504 62.5566C0.13225 62.6698 0.0704999 62.8083 0.0505816 62.9555C0.0306633 63.1027 0.0534139 63.2526 0.116135 63.3873C0.178856 63.522 0.278912 63.6359 0.404423 63.7154C0.529934 63.7949 0.675628 63.8368 0.824208 63.8359H8.61718C9.07616 63.8359 9.51562 63.6309 9.81835 63.2793L30.9609 38.0742L52.1035 63.2793C52.3965 63.6309 52.8359 63.8359 53.3047 63.8359H61.0976C61.7617 63.8359 62.123 63.0645 61.6933 62.5566L36.0586 32Z" fill="black"/>
</svg>
