<svg width="35" height="36" viewBox="0 0 35 36" fill="none" xmlns="http://www.w3.org/2000/svg">
<path d="M1 30.9017V5.23503C1 3.20998 2.64162 1.56836 4.66667 1.56836H25.1479C26.1203 1.56836 27.053 1.95466 27.7406 2.64231L32.926 7.82774C33.6137 8.51539 34 9.44801 34 10.4205V30.9017C34 32.9268 32.3584 34.5684 30.3333 34.5684H4.66667C2.64162 34.5684 1 32.9268 1 30.9017Z" stroke="black" stroke-width="2"/>
<path d="M11.2666 12.5684H23.7333C24.3409 12.5684 24.8333 12.0759 24.8333 11.4684V2.66836C24.8333 2.06085 24.3409 1.56836 23.7333 1.56836H11.2666C10.6591 1.56836 10.1666 2.06085 10.1666 2.66836V11.4684C10.1666 12.0759 10.6591 12.5684 11.2666 12.5684Z" stroke="black" stroke-width="2"/>
<path d="M6.50006 21.0017V34.5684H28.5001V21.0017C28.5001 20.3941 28.0076 19.9017 27.4001 19.9017H7.60006C6.99255 19.9017 6.50006 20.3941 6.50006 21.0017Z" stroke="black" stroke-width="2"/>
</svg>
