<svg width="86" height="86" viewBox="0 0 86 86" fill="none" xmlns="http://www.w3.org/2000/svg">
<path fill-rule="evenodd" clip-rule="evenodd" d="M69.7663 16.0163C70.8158 14.9668 72.5174 14.9668 73.567 16.0163L80.7336 23.183C81.7832 24.2325 81.7832 25.9342 80.7336 26.9837L73.567 34.1504C72.5174 35.1999 70.8158 35.1999 69.7663 34.1504C68.7167 33.1008 68.7167 31.3992 69.7663 30.3497L72.3451 27.7709H65.923C62.8987 27.7709 60.8208 27.7738 59.186 27.9327C57.6092 28.0859 56.6553 28.3694 55.8641 28.8174C55.0729 29.2654 54.3391 29.9375 53.3964 31.2107C52.4191 32.5307 51.3475 34.3111 49.7915 36.9044L40.7502 51.9732C39.2778 54.4272 38.0743 56.4332 36.9234 57.9877C35.7204 59.6125 34.4573 60.9126 32.7841 61.86C31.1108 62.8074 29.3461 63.2216 27.3339 63.4172C25.4089 63.6043 23.0695 63.6042 20.2077 63.6042H7.16663C5.68236 63.6042 4.47913 62.401 4.47913 60.9167C4.47913 59.4324 5.68236 58.2292 7.16663 58.2292H20.0769C23.1012 58.2292 25.1791 58.2263 26.8139 58.0674C28.3907 57.9141 29.3446 57.6307 30.1358 57.1827C30.927 56.7347 31.6609 56.0626 32.6035 54.7893C33.5808 53.4693 34.6525 51.689 36.2085 49.0956L45.2497 34.0269C46.7221 31.5729 47.9257 29.5668 49.0765 28.0124C50.2795 26.3876 51.5426 25.0874 53.2159 24.14C54.8891 23.1927 56.6539 22.7785 58.666 22.5829C60.591 22.3958 62.9305 22.3958 65.7923 22.3959L72.3451 22.3959L69.7663 19.817C68.7167 18.7675 68.7167 17.0659 69.7663 16.0163ZM27.7038 27.9194C27.0011 27.7826 26.206 27.7709 23.8923 27.7709H7.16663C5.68236 27.7709 4.47913 26.5676 4.47913 25.0834C4.47913 23.5991 5.68236 22.3959 7.16663 22.3959H23.8923C23.9805 22.3959 24.0674 22.3958 24.1532 22.3958C26.1072 22.3953 27.4547 22.395 28.7307 22.6434C31.5955 23.201 34.2008 24.6761 36.1528 26.8457C37.0223 27.8121 37.7154 28.9678 38.7203 30.6436C38.7644 30.7171 38.8091 30.7917 38.8545 30.8673C39.6181 32.1401 39.2054 33.7909 37.9327 34.5545C36.6599 35.3182 35.0091 34.9055 34.2454 33.6327C33.055 31.6487 32.6359 30.973 32.1571 30.4408C30.9858 29.139 29.4227 28.2539 27.7038 27.9194ZM48.0673 51.4455C49.34 50.6819 50.9908 51.0946 51.7545 52.3673C52.9449 54.3513 53.364 55.0271 53.8428 55.5593C55.0141 56.861 56.5773 57.7461 58.2961 58.0807C58.9988 58.2174 59.7939 58.2292 62.1077 58.2292H72.3451L69.7663 55.6504C68.7167 54.6008 68.7167 52.8992 69.7663 51.8497C70.8158 50.8001 72.5174 50.8001 73.567 51.8497L80.7336 59.0163C81.7832 60.0659 81.7832 61.7675 80.7336 62.817L73.567 69.9837C72.5174 71.0332 70.8158 71.0332 69.7663 69.9837C68.7167 68.9342 68.7167 67.2325 69.7663 66.183L72.3451 63.6042H62.1077C62.0195 63.6042 61.9325 63.6042 61.8466 63.6042C59.8927 63.6047 58.5452 63.605 57.2692 63.3567C54.4044 62.7991 51.7991 61.3239 49.8471 59.1543C48.9776 58.188 48.2845 57.0322 47.2797 55.3565C47.2355 55.2829 47.1908 55.2083 47.1454 55.1327C46.3818 53.86 46.7945 52.2092 48.0673 51.4455Z" fill="black"/>
</svg>
